<?xml version="1.0" encoding="UTF-8"?>
<svg id="Layer_2" data-name="Layer 2" xmlns="http://www.w3.org/2000/svg" viewBox="0 0 86.06 336.87">
  <g id="Layer_1-2" data-name="Layer 1">
    <path d="M53.74,41.26l-1.91,1.69.95.24c.21.8-.9.22-.99.78-.18,1.06.42,4.22,1.08,5.16,3.61,5.15,8.66,6.25,13.93,9.09.71.38.7.83,1.16,1.31,2.17-.91,1.27-.08,2.13.63,3.79,3.15,5.94,4.44,8.77,8.47,1.29,1.83,2.48,3.63,3.39,6.2,2.34,6.59,2.19,16.21,2.7,23.75.2,2.94,1.22,7.14.94,10.09-.07.73-1.12,1.49-.96,1.68.05.06.8-.14.93.31.11.37-.3,2.45-.25,3.21.14,2.23.03,3.34.03,5.18,0,2.19,1.23,6.51-.72,7.39l1,.51c-.48,1.33-.94,3.07-.75,4.48s1.51,1.2-.26,1.73c0,.66.74,1.05.93,1.91.83,3.83-.9,15.01-1.24,19.34-.17,2.25.94,7.72-1.59,8.26l.05.91c.06.08.82-.08.92.36.68,2.91-1.35,12.36-1.77,15.91-.35,2.97.04,5.78-.77,8.84-.28,1.05-1.92,2.15-.83,4.19l-2.4.73,1.91-.25c1.25,2.23-.3,2.4-.37,2.63-.4,1.36-.53,3.72-.88,5.09s-1.77,2.19-.66,3.79l-1.71.45c.31,2.37-2.11,4.07-2.57,6.55-.16.88.33,2.64.2,3.79-1.18,10.5-1.73,20.87-1.44,31.5-.16,1.09-1.14.82-1.19.89-.13.2.68.81.82,1.33.73,2.67-.4,5.85-.58,8.51-.09,1.29.09,2.78.24,4.07l-.96-.24c1.1,3,.59,6.08.67,9,.04,1.55,1.67,2.99-.66,3.23l.9.7c-.35,1.18-.99,2.5-.4,3.74.28.59,1.14.02.95,1.07l-1.92,1.91c1.54,1.01.19,1.37.14,1.93-.06.69,1.84.97-.15,1.44l1.43.24c-.14,1.09.24,2.53.01,3.53-.12.53-1.29-.02-.97,1.03l.96.25-.96,1.14c.44,1.41.1,2.58,1.92,2.22-.23.99-1.45.46-1.75,1.9-.44,2.15,1.26,2.99,1.27,3.17.12,2.64-.16,5.42.23,8.37.29,2.19.78,6.31,1.33,8.26.12.42,2.09,3.1,2.54,3.73.34.47.9.04,1.05.18.65.59,3.83,6.34,4.2,7.48,1.18,3.65-.08,3.68-.96,6.28-.28.83.55,1.59-.24,2.14-.2.14-.93-.19-1.4.02-6.59,2.98-10.58,3.2-17.07-.77-5.67-3.47-13.99-9.69-19-14.08-.49-.43-2.08-1.74-2.59-1.75-1.31.15-1.59,1.62-2.38,2.45-2.46,2.57-4.43,5.79-6.7,8.15-6.84,7.11-15.47,6.29-24.49,5.34-1.15-.12-3.73,1.25-4.08-1.53,1.82-.79,2.4.92,3.08,1,1.15.14,2.33-.28,3.39-.25,7.67.23,12.91.9,19.57-3.6,3.06-2.07,4.33-6.03,6.38-8.61.5-.63,4.83-4.82,5.22-4.83,1.21.35,3.09,1.68,3.95,2.53.39.38.35,1.19.59,1.42,2.38,2.42,4.45,2.56,7.01,4.65,2.12,1.73,4,2.76,5.99,4.59.81.75-.22,1.58,1.85.73,2.89,4.16,8.85,4.91,13.45,6.2.39-1.56,2.95-1.05,4.56-2.45.83-.72.27-1.2.36-1.3.38-.41,1.5-.1,1.82-.91,1.91-4.77-5.39-12.22-8.43-15.44-1.2-11.06-3.12-22.43-2.48-33.83.11-1.92.98-3.96,1.04-5.95.46-17.31-.82-34.3,1.74-51.61l-.96-.47c1.3-6.39.63-12.84,3.47-18.4,4.02-7.89,3.07-17.03,4.18-26.22l.9-.48c-.81-8.38,2.23-16.53,3.24-24.79,1.37-11.2,1.28-24.76,1.16-36.18-.04-3.55-1.02-9.21-.77-12.48.06-.83,1.66-.92-.16-1.4-.05-6.19.08-12.53-.54-18.72-.23-2.31-1.02-7.79-1.73-9.78-.48-1.33-4.91-8.34-5.94-9.46-.77-.84-4.37-3.16-5.58-4.21-1.14-1-1.05-2.12-1.14-2.21-.12-.13-1.22.47-1.93.28-1.04-.28-3.64-2.16-4.91-2.79-1.85-.93-2.57-1.25-4.42-2.29-1.06-.6-3.49-1.34-4.11-2.25-.25-.38-2.86-5.8-2.85-6.14.02-.61.73-1.04.8-1.52.08-.53-.36-1.14-.23-1.72.23-1.03,2.54-4.82,3.25-2.28ZM79.64,191.9v-1.44s-1.44.48-1.44.48l.73.95h.71Z"/>
    <path d="M25.45,52.3s-.14-.65.32-1.01,1.36.2,2.35-.89c3.26-3.57-1.09-6.72-2.02-9.56-.19-.59-.4-1.41.54-1.02.22.09,2.92,3.39,3.11,3.71.86,1.49.54,3.15,1.93,3.71-1.8,2.4-2.33,6.26-6.24,5.04.64,2.72-1.58,3.04-3.53,4.4-3.08,2.14-10.86,7.29-12.98,10.5-.47.7-.12,1.82-.99,2.36l.24-1.9c-1.54.01-1.99,1.1-1.44,2.39l-1.43.24c1.12.69.13,4.07-.5,5.17-.26.46-1.63,2.62-1.74,3-.73,2.43.3,3.19.14,4.32-.07.54-.98.81-1.07,1.4-1.47,9.05.44,24.15.98,33.62.24,4.14,1.11,9.78,1.17,13.44,0,.22-.8.15-.9.51-.17.59.78,2.55.81,3.49.05,1.49-.66,2.75-.65,4.04.02,2.12,2.63,4.93.31,5.84.5.38.83.82.94,1.46.92,5.15.46,10.33,1.94,15.33l-1.44.49c2.03,1.21,1.13,2.93,1.55,4.67.92,3.79,1,3.35.89,7.35,0,.22.82.13.91.53.33,1.42-.74,3.33.03,5.55,1.08,3.1.33,3.77.5,6.86.05.87,1.43,2.55,1.37,3.77.04.87-3.41.99-.95-1.62-1.31.12-1.22-1.59-1.47-2.6l1-.29-.87-.69c-.16-11.01-3.9-21.54-5.12-32.39-.14-1.23-.27-1.94-.47-3.3-.16-1.12.85-4.68.71-4.88l-.95.49c.74-1.75.02-3.1.02-4.58.04-19.38-4.39-44.47-1.44-63.28.27-1.69,1.99-3.93,1.9-6.03l1.91.48-.95-1.18c.51-2.6,2.67-4.1,3.37-6.5,1.98,1.24,2.25-1.63,3.38-2.6,4.22-3.61,10.2-6.41,14.84-9.87Z"/>
    <path d="M50.23,2.1c3.77,3.76,6.37,12.68,6.84,17.9.1,1.09-.57,1.97-.26,3.05.52,1.81,2.05,1.14,2.97,1.87s1.17,3.64,1.15,4.84l-.95-.49-.98,6.24h-1.42s.96-2.87.96-2.87h-1.44s1.44-5.76,1.44-5.76l-2.87.95c-.46-1.68.19-3.31.01-5.05-.58-5.64-1.98-9.98-3.95-15.26-.17-.45-.05-.8.05-1.23-1.68-.44-2.48-1.5-4.16-2.13-2.14-.81-4.13-.89-6.61-1.51-.46-.12-.92-.86-1.17-.72-.05.03.18.82-.6,1.11-.88.33-3.69-.06-5.27.45-1.1.36-2.87,1.31-3.71,2.06-.31.28-2.75,3.16-2.9,3.43-.77,1.35-.86,4.3-2.4,4.46l.95.71c-1.64,1.76-.3,4.41-.58,6.59-.22,1.67-1.33,1.96-1.33,2.09-.03,1.05.73,2.61.23,4.05-.45,1.31-2.62.97-2.67,3.57-.06,3.3,3.84,4.33,3.39,7.44-5.63-2.11-9.49-10.26-1.9-12.79.44-2.57-.04-6.08.48-8.54.58-2.74.94-.03.47-3.89-.2-1.67,2.24-5.86,3.35-7.16,1-1.17,2.6-2.55,3.99-3.2C33.42,1.35,42.04-.07,44.37,0c1.67.05,4.67.9,5.86,2.09Z"/>
    <path d="M10.25,195.13c.11.35,2.18,1.87.33,3.26,1.52.4.54.93.79,1.66.59,1.66,2.79,5.65.64,6.48,1.78,1.39,1.48,2.43,2.25,3.96.38.75,1.71.67,1.11,2.52l.95-1.21c2.6.83.04,2.32,0,2.5-.45,2.24.83,7.05.97,9.54.22,3.82-.1,7,.25,10.82.93,9.91,1.68,19.3,2.02,29.31.07,1.99-.7,8.4-.33,9.65,1.57,5.28,1.32,9.93,2.04,15.03.42,2.99,2.02,9.79,1.77,12.36-.34,3.55-2.08,5.26-3.6,7.95l-1.19-.24,3.29-7.18c-.34-5.03-1.82-9.97-2.34-14.93-2.44-23.27-1.97-47.5-4.28-70.96-.17-1.74-2.08-4.62-2.66-6.49-1.27-4.07-1.4-7.68-1.96-11.72-.12-.85-.77-1.77-.89-3.07-.04-.43-.09-2.09.68-1.98.36.85-.06,2.05.15,2.75Z"/>
    <path d="M49.26,96.64c2.81,1.15,4.61-.19,7.71-.5,1.09-.11,2.42.09,3.49.31-.1.72-2.07.79-2.7.89-2.66.41-6.28-.03-8.31,1.74-.1,1.35,9.95,7.63,11.49,9.12l-3.8-1.48-7.23-5.96c.21.75-.04,2.04.11,2.64.37,1.49,1.5,4.99,2.1,6.99.92,3.05,2.45,5.93,3.06,9.08l2.87-2.88c.2,2.31-1.41,3.21-2.67,4.76l-3.56-2.13,1.43-.25c.24-2.05-1.53-2.77.03-4.54-1.99-1.71-2.34-6.23-3.23-8.79-.48-1.37-1.51-4.8-2.97-5.13-.45-.1-1.31.36-1.45.22-.95-.96.78-2.55-3.64-2.42-7.61.22-15.37,1.2-23.01,1.46-.67.02-1.1-.26-1.67-.48l1.43,2.4-3.35-.96,3.12-4.31.48,2.4,25.36-.99,1.05-1.89c1.46.2,2.4.08,3.86.68Z"/>
    <path d="M19.21,309.43l-1.89,4.11.93.68c-1.75.39-2.42,3.34-3.5,4.66-.27.33-.97.46-1.31.83-.77.84-1.91,3.02-3.1,2.68-.21-.06-.25-.99-.51-1-.83-.05-2.14,1.03-2.99,1.34-.42.16-1.01-.23-1.33-.17-.53.1-3.67,3.97-5.49,3.17,2.91-3.6,8.52-4.1,11.1-7.63l1.33.41c1.33-1.48.91-3.54,1.58-4.89.72-1.47,2.84-2.84,3.32-4.63l1.86.43Z"/>
    <path d="M73.9,98.84l.95-2.4c-3.82-.22-8.38.94-12.11.35-.43-.07-1.44-.2-1.31-.83l8.11-.42.51.89c-.4-1.7,3.62-.77,4.32-1.44.32-1.5-2.34-.81.14-1.84l4.17,3.03-4.79,2.64Z"/>
    <path d="M24.97,118.99l-6.71,6.95c3.59.72-.38,1.8-1.68,2.62-.88-.03-1.26-10.84,1.44-3.36.62-1.29,5.75-7.19,6.95-6.22Z"/>
    <path d="M76.29,116.58l-.25-1.44,1.22-.25,1.86,4.34-4.75,1.66,2.4-2.15-8.63-4.8c.82-1.11.8-.45,1.59-.16,1.13.42,5.82,3.44,6.56,2.79Z"/>
    <path d="M72.93,69.1c-.52,1.55.71,4.4-.95,5.27v-2.88c-.17-.18-4.34.99-3.84-.96l4.79-1.44Z"/>
    <polygon points="18.26 69.1 18.03 70.05 15.38 69.57 15.02 72.82 13.94 73.41 13.94 68.13 18.26 69.1"/>
    <path d="M41.76,104.12c.09.08-.55,1.25-.84,1.45l-5.39,4.3,1.3-1.55-.33-.82c1.6.64,4.01-4.48,5.26-3.38Z"/>
    <path d="M31.21,113.71c-1.31,1.75-2.97,3.36-4.8,4.55-.72.46-.51,1.18-1.42,0,2.24-1.19,3.82-3.99,6.23-4.55Z"/>
    <path d="M59.5,86.37c-.52.85-3.3,5.22-4.31,4.31-.15-1.06,3.79-4.79,4.31-4.31Z"/>
    <path d="M63.69,109.56c.12.06,1.88,1.48,2,1.64.36.48.83.48.53,1.54l-3.83-2.65c-.2-1.09.7-.84,1.3-.54Z"/>
    <path d="M56.14,37.43c-.25,2.57-4.54,3.65-2.17.43l2.17-.43Z"/>
    <path d="M64.78,79.65l-1.53,2.57-2.79,2.7c.74-.97,1.2-2.14,1.92-3.11.51-.68,1.46-2.31,2.39-2.16Z"/>
    <path d="M52.57,94.3c-.5.55-1.1,1.05-1.63,1.58-.66.66-.05.82-1.02-.17,1.12-.72,1.87-1.15,1.93-2.64l.93.48c.1-1.37.61-2.04,1.93-2.4.26,1.48-1.22,2.14-2.14,3.14Z"/>
    <path d="M43.2,102.67c-.2-1.16,1.08-1.5,1.91-1.92.46.56-1.18,2.27-1.91,1.92Z"/>
    <path d="M65.74,77.72c.29-1.05.86-1.63,1.91-1.91.29.88-1.38,2.33-1.91,1.91Z"/>
    <path d="M20.65,74.37c-.86.05-2.05-.54-2.4-1.43.86-.05,2.05.54,2.4,1.43Z"/>
    <path d="M32.64,84.92l-1.38-.06-.53-1.37c.5-.39,1.77.8,1.92,1.43Z"/>
    <path d="M66.7,112.27c.72-.72,2.04,1.43.72,1.43-.32,0-.99-1.15-.72-1.43Z"/>
    <path d="M23.05,76.77l-1.43-.49v-.95c.91-.15,1.6.56,1.43,1.44Z"/>
    <path d="M27.85,79.65v.95s-.71,0-.71,0c-.52-.43-.88-.73-.72-1.43l1.43.49Z"/>
  </g>
</svg>